<svg 
 xmlns="http://www.w3.org/2000/svg"
 xmlns:xlink="http://www.w3.org/1999/xlink"
 width="31px" height="35px">
<path fill-rule="evenodd"  fill="rgb(145, 211, 250)"
 d="M3.558,21.875 L5.645,21.875 C7.610,21.875 9.203,23.468 9.203,25.433 L9.203,31.442 C9.203,33.407 7.610,35.000 5.645,35.000 L3.558,35.000 C1.593,35.000 0.000,33.407 0.000,31.442 L0.000,25.433 C0.000,23.468 1.593,21.875 3.558,21.875 Z"/>
<path fill-rule="evenodd"  fill="rgb(56, 177, 249)"
 d="M14.230,10.937 L16.165,10.937 C18.005,10.937 19.496,12.429 19.496,14.269 L19.496,31.669 C19.496,33.508 18.005,35.000 16.165,35.000 L14.230,35.000 C12.390,35.000 10.898,33.508 10.898,31.669 L10.898,14.269 C10.898,12.429 12.390,10.937 14.230,10.937 Z"/>
<path fill-rule="evenodd"  fill="rgb(0, 160, 255)"
 d="M25.355,-0.000 L27.442,-0.000 C29.407,-0.000 31.000,1.593 31.000,3.558 L31.000,30.911 C31.000,32.876 29.407,34.469 27.442,34.469 L25.355,34.469 C23.390,34.469 21.797,32.876 21.797,30.911 L21.797,3.558 C21.797,1.593 23.390,-0.000 25.355,-0.000 Z"/>
</svg>